<svg width="25" height="24" viewBox="0 0 25 24" fill="none" xmlns="http://www.w3.org/2000/svg">
<path d="M24.5812 11.1861L21.7677 3.44967C21.0229 1.39863 19.0562 0.0205078 16.874 0.0205078H8.12708C5.94375 0.0205078 3.97812 1.39863 3.23333 3.44863L0.41875 11.1861C0.140625 11.9497 0 12.7486 0 13.5632V14.6049C0 16.3018 0.828125 17.7976 2.0875 18.7486C2.0875 18.757 2.08333 18.7632 2.08333 18.7715V20.8549C2.08333 22.5778 3.48542 23.9799 5.20833 23.9799C6.93125 23.9799 8.33333 22.5778 8.33333 20.8549V19.8132H16.6667V20.8549C16.6667 22.5778 18.0687 23.9799 19.7917 23.9799C21.5146 23.9799 22.9167 22.5778 22.9167 20.8549V18.7715C22.9167 18.7632 22.9125 18.757 22.9125 18.7486C24.1729 17.7976 25 16.3018 25 14.6049V13.5632C25 12.7486 24.8583 11.9497 24.5812 11.1861ZM5.18958 4.16113C5.6375 2.93092 6.81667 2.10488 8.12604 2.10488H16.8719C18.1812 2.10488 19.3615 2.93092 19.8083 4.16217L21.3333 8.35488H3.66458L5.18958 4.16113ZM6.25 20.8549C6.25 21.4288 5.78333 21.8965 5.20833 21.8965C4.63333 21.8965 4.16667 21.4288 4.16667 20.8549V19.708C4.50312 19.7768 4.85208 19.8132 5.20833 19.8132H6.25V20.8549ZM20.8333 20.8549C20.8333 21.4288 20.3667 21.8965 19.7917 21.8965C19.2167 21.8965 18.75 21.4288 18.75 20.8549V19.8132H19.7917C20.1479 19.8132 20.4969 19.7768 20.8333 19.708V20.8549ZM19.7917 17.7299H16.6667V16.6882C16.6667 16.1132 16.201 15.6465 15.625 15.6465H9.375C8.79896 15.6465 8.33333 16.1132 8.33333 16.6882V17.7299H5.20833C3.48542 17.7299 2.08333 16.3278 2.08333 14.6049H4.16667C4.74271 14.6049 5.20833 14.1382 5.20833 13.5632C5.20833 12.9882 4.74271 12.5215 4.16667 12.5215H2.20937C2.25521 12.3122 2.30208 12.1018 2.37604 11.8986L2.90729 10.4382H22.0927L22.624 11.8986C22.6979 12.1018 22.7448 12.3111 22.7906 12.5215H20.8333C20.2573 12.5215 19.7917 12.9882 19.7917 13.5632C19.7917 14.1382 20.2573 14.6049 20.8333 14.6049H22.9167C22.9167 16.3278 21.5146 17.7299 19.7917 17.7299Z" fill="#4389E4"/>
</svg>
