<svg width="35" height="21" viewBox="0 0 35 21" fill="none" xmlns="http://www.w3.org/2000/svg">
<path d="M17.4987 18.6589C19.6984 18.6589 21.4817 15.0059 21.4817 10.4997C21.4817 5.99356 19.6984 2.34058 17.4987 2.34058C15.2989 2.34058 13.5156 5.99356 13.5156 10.4997C13.5156 15.0059 15.2989 18.6589 17.4987 18.6589Z" fill="#EA5610"/>
<path d="M24.2587 9.71826e-06C21.7973 -0.00326967 19.4102 0.823506 17.5 2.34083C18.7438 3.32486 19.7469 4.56816 20.436 5.97984C21.125 7.39151 21.4826 8.93587 21.4826 10.5C21.4826 12.0641 21.125 13.6085 20.436 15.0202C19.7469 16.4318 18.7438 17.6751 17.5 18.6592C19.4102 20.1765 21.7973 21.0033 24.2587 21C30.1926 21 34.9998 16.2977 34.9998 10.5C34.9998 4.70231 30.1926 9.71826e-06 24.2587 9.71826e-06Z" fill="#F59B1D"/>
<path d="M13.5174 10.5C13.516 8.9356 13.873 7.39076 14.5623 5.97887C15.2515 4.56698 16.2554 3.32388 17.5004 2.34083C15.59 0.823585 13.2027 -0.00317276 10.7412 9.15037e-06C4.80888 9.15037e-06 0 4.70068 0 10.5C0 16.2993 4.80888 21 10.7412 21C13.2027 21.0032 15.59 20.1764 17.5004 18.6592C16.2555 17.676 15.2517 16.4329 14.5624 15.0211C13.8732 13.6092 13.5161 12.0644 13.5174 10.5Z" fill="#E41713"/>
</svg>
