<svg width="47" height="46" viewBox="0 0 47 46" fill="none" xmlns="http://www.w3.org/2000/svg">
<g clip-path="url(#clip0_6025_73)">
<path d="M23.5 23C25.8239 23 28.0957 22.3255 30.028 21.0619C31.9602 19.7983 33.4663 18.0022 34.3556 15.9009C35.2449 13.7995 35.4776 11.4872 35.0242 9.25647C34.5709 7.02569 33.4518 4.97658 31.8085 3.36828C30.1652 1.75997 28.0716 0.664704 25.7923 0.220974C23.513 -0.222756 21.1505 0.00498279 19.0035 0.875391C16.8564 1.7458 15.0213 3.21978 13.7302 5.11095C12.4391 7.00211 11.75 9.22552 11.75 11.5C11.7531 14.5491 12.9921 17.4724 15.1949 19.6284C17.3978 21.7844 20.3847 22.997 23.5 23ZM23.5 3.83334C25.0493 3.83334 26.5638 4.28298 27.852 5.1254C29.1402 5.96783 30.1442 7.1652 30.7371 8.5661C31.3299 9.967 31.4851 11.5085 31.1828 12.9957C30.8806 14.4829 30.1345 15.849 29.039 16.9212C27.9435 17.9934 26.5477 18.7235 25.0282 19.0194C23.5087 19.3152 21.9337 19.1634 20.5023 18.5831C19.071 18.0028 17.8476 17.0202 16.9868 15.7594C16.1261 14.4986 15.6667 13.0163 15.6667 11.5C15.6667 9.46668 16.492 7.51663 17.961 6.07885C19.43 4.64107 21.4225 3.83334 23.5 3.83334Z" fill="#383838"/>
<path d="M23.5 26.833C18.8272 26.8381 14.3472 28.6571 11.043 31.891C7.73876 35.1249 5.88018 39.5096 5.875 44.083C5.875 44.5913 6.08132 45.0789 6.44858 45.4383C6.81584 45.7977 7.31395 45.9997 7.83333 45.9997C8.35272 45.9997 8.85083 45.7977 9.21808 45.4383C9.58534 45.0789 9.79167 44.5913 9.79167 44.083C9.79167 40.5247 11.2359 37.1121 13.8067 34.596C16.3776 32.0799 19.8643 30.6663 23.5 30.6663C27.1357 30.6663 30.6224 32.0799 33.1933 34.596C35.7641 37.1121 37.2083 40.5247 37.2083 44.083C37.2083 44.5913 37.4147 45.0789 37.7819 45.4383C38.1492 45.7977 38.6473 45.9997 39.1667 45.9997C39.6861 45.9997 40.1842 45.7977 40.5514 45.4383C40.9187 45.0789 41.125 44.5913 41.125 44.083C41.1198 39.5096 39.2612 35.1249 35.957 31.891C32.6528 28.6571 28.1728 26.8381 23.5 26.833Z" fill="#383838"/>
</g>
<defs>
<clipPath id="clip0_6025_73">
<rect width="47" height="46" fill="white"/>
</clipPath>
</defs>
</svg>
