<svg width="64" height="21" viewBox="0 0 64 21" fill="none" xmlns="http://www.w3.org/2000/svg">
<path d="M63.9996 20.6025H59.358C59.1958 19.8276 59.0051 19.1004 58.9021 18.3607C58.8198 17.7753 58.5346 17.6054 57.9925 17.6117C56.2173 17.6336 54.4412 17.6438 52.6659 17.6117C52.1008 17.6015 51.8786 17.8637 51.7103 18.3513C51.4458 19.1168 51.3181 20.1563 50.7699 20.5328C50.2218 20.9093 49.213 20.6502 48.4073 20.6573C47.5377 20.6643 46.6674 20.6573 45.624 20.6573C46.1507 19.3384 46.6235 18.1142 47.1271 16.9002C49.1569 11.9737 51.2097 7.05661 53.2172 2.12074C53.6977 0.938821 54.485 0.351777 55.7229 0.353342C56.8854 0.353342 58.0494 0.315772 59.2081 0.382304C59.4818 0.397958 59.9193 0.727486 59.9716 0.979524C61.3324 7.48163 62.6526 13.9923 63.9996 20.6025ZM57.8949 13.5047C57.3567 10.9092 56.8516 8.45456 56.3441 5.99993H56.1189L53.4586 13.5063L57.8949 13.5047Z" fill="#262A5A"/>
<path d="M10.4579 20.6583C9.07399 15.209 7.69006 9.85043 6.35533 4.48093C6.11314 3.50957 5.67182 2.78398 4.74074 2.43723C3.50289 1.97699 2.25658 1.54179 1.01027 1.1066C0.688122 0.992321 0.351365 0.915613 0 0.572779C0.257565 0.499203 0.514362 0.362225 0.768852 0.36066C3.41755 0.345788 6.06624 0.337178 8.71417 0.36066C10.115 0.371618 10.9238 1.05103 11.2006 2.48889C11.918 6.22171 12.5976 9.96236 13.2927 13.6999C13.3142 13.8134 13.3434 13.9261 13.4334 14.3221C13.8947 13.1841 14.2668 12.3011 14.6128 11.4081C15.9496 7.96406 17.2794 4.51485 18.6024 1.06042C18.7854 0.579825 18.9999 0.316827 19.5704 0.334047C21.0542 0.377097 22.5397 0.348137 24.1696 0.348137C23.869 1.12382 23.6084 1.83532 23.32 2.53585C20.9435 8.31002 18.5532 14.0779 16.1959 19.8615C15.9452 20.4752 15.6477 20.7006 14.9903 20.6763C13.511 20.6207 12.0256 20.6583 10.4579 20.6583Z" fill="#262A5A"/>
<path d="M46.6943 0.722757C46.3583 2.31013 46.0792 3.64545 45.8062 4.91582C44.5561 4.65047 43.3736 4.26224 42.1734 4.19023C41.2167 4.14481 40.2617 4.3109 39.374 4.67709C38.2369 5.14672 38.1108 6.33177 39.0765 7.10354C39.8807 7.74381 40.8295 8.19466 41.7083 8.74022C42.3118 9.11593 42.9138 9.49555 43.5012 9.89787C46.8473 12.1913 45.99 16.76 43.6658 18.7615C41.4799 20.6447 38.8658 21.1206 36.1433 20.9758C34.4657 20.8866 32.8057 20.4592 31.0166 20.1633C31.361 18.5 31.6509 17.1021 31.9146 15.8317C33.4785 16.1777 34.9593 16.6317 36.4693 16.7913C37.3865 16.8884 38.413 16.6904 39.2795 16.3405C40.6526 15.7863 40.8287 14.4056 39.6862 13.4585C38.9711 12.866 38.1077 12.4511 37.2904 11.9948C35.9526 11.2481 34.651 10.4661 33.8467 9.07209C32.7096 7.10119 33.0779 4.37574 34.7694 2.64122C36.9075 0.449584 39.6308 -0.114761 42.5109 0.0183022C43.878 0.0785721 45.2281 0.463675 46.6943 0.722757Z" fill="#262A5A"/>
<path d="M27.3755 20.6182H22.3164C23.738 13.8492 25.1465 7.13968 26.5635 0.392578H31.6164C30.1994 7.1475 28.7986 13.8351 27.3755 20.6182Z" fill="#262A5A"/>
</svg>
