<svg width="80" height="70" viewBox="0 0 80 70" fill="none" xmlns="http://www.w3.org/2000/svg">
<path d="M79.9452 32.3535C79.839 31.5804 79.5067 30.8696 79.0004 30.2714H79.0129L78.9441 30.2113C78.6879 29.9161 78.3879 29.6558 78.0529 29.4251L64.9952 17.9173V10.8599C64.9952 9.6516 63.8765 8.67293 62.4953 8.67293H54.5797L45.4554 1.8584C42.6257 -0.617246 37.6822 -0.621688 34.8487 1.8584L25.7556 8.67293H17.4987C16.1176 8.67293 14.9989 9.6516 14.9989 10.8599V18.0617L2.25608 29.2097C0.901261 29.9938 0 31.3344 0 32.8554V65.6261C0 68.0306 2.25116 70 4.99963 70H74.9944C77.743 70 79.994 68.0306 79.994 65.6261V32.9418C80.0116 32.745 79.989 32.5481 79.9453 32.3536L79.9452 32.3535ZM21.0086 49.5911L4.99978 62.5817V37.2336L21.0086 49.5911ZM25.8283 51.6413C26.169 51.5147 26.4727 51.3226 26.7171 51.0793C26.8508 50.9471 26.9558 50.8016 27.0471 50.6518L37.82 41.9083C38.3862 41.5092 39.0574 41.2992 39.7636 41.2992C40.481 41.2992 41.1984 41.519 41.6796 41.8459L71.6649 65.6248H8.59834L25.8283 51.6413ZM59.2459 49.8797L74.9947 37.6535V62.3684L59.2459 49.8797ZM70.1513 28.4813H70.075L74.3634 32.2943L64.9954 39.5682V23.9718L70.1513 28.4813ZM38.3837 4.95064C38.8574 4.5384 39.4848 4.30986 40.151 4.30986C40.8197 4.30986 41.4472 4.5384 41.9209 4.95064L46.9692 8.67286H33.3428L38.3837 4.95064ZM59.9958 13.0468V43.449L55.5186 46.9262L44.8694 38.4813C41.9259 36.4627 37.7 36.3751 34.5827 38.5753L24.6909 46.6015L19.9987 42.9788V13.0468H59.9958ZM8.11205 30.2713L14.999 24.2483V39.1208L5.88847 32.0886L7.99706 30.2712L8.11205 30.2713Z" fill="#0E1429"/>
</svg>
